/* XPM */
static char *_0d4c372032d4fff8ba84edafb095602ZAPBXDf1pCDIAaLx[] = {
/* columns rows colors chars-per-pixel */
"64 64 56 1 ",
"  c None",
". c black",
"X c #28200C",
"o c #382C14",
"O c #202020",
"+ c #2C2C2C",
"@ c gray22",
"# c #403018",
"$ c #483818",
"% c #543C1C",
"& c #5C4020",
"* c #6C4824",
"= c #744C28",
"- c #000040",
"; c #00004C",
": c #000064",
"> c #000070",
", c #00007C",
"< c #500050",
"1 c #484848",
"2 c gray33",
"3 c #646464",
"4 c gray44",
"5 c #7C7C7C",
"6 c #80502C",
"7 c #885830",
"8 c #905C34",
"9 c #9C6038",
"0 c #A0643C",
"q c #A86840",
"w c #B47044",
"e c #BC7848",
"r c #C87C4C",
"t c #D08050",
"y c #DC8854",
"u c #E88C58",
"i c #F0945C",
"p c #FC9C60",
"a c #FCA470",
"s c #000088",
"d c #000098",
"f c #0000A8",
"g c #0000B0",
"h c #0000D4",
"j c #0000E0",
"k c #0004FC",
"l c gray55",
"z c #989898",
"x c gray66",
"c c #FCB080",
"v c #FCB890",
"b c #FCBC9C",
"n c #FCD4BC",
"m c #C0C0C0",
"M c #D0D0D0",
"N c #ECECEC",
/* pixels */
"                                                                ",
"                                                                ",
"                                                                ",
"                                                                ",
"                                                                ",
"                                                                ",
"                                                                ",
"                                                                ",
"                                                                ",
"                                                                ",
"                                                                ",
"                                                                ",
"                                                                ",
"                                                                ",
"                                                                ",
"                                                                ",
"                                                                ",
"                                                                ",
"                              xxl521                            ",
"                             xMl221@1                           ",
"                             ll3221@O                           ",
"                             z54221@O                           ",
"                            zmNml432+O                          ",
"                           zz+++++++.+O                         ",
"                             =qkcekq=                           ",
"                             $ibOqbi$                           ",
"                             .9ONOu$.                           ",
"                          au...z.zO..#8q                        ",
"                       var06#m.252.m#qq69t                      ",
"                      qaaipaa7n.+.e..pppp9w                     ",
"                      eaappa9cewayee9&tteew                     ",
"                      evuqte*ccwvaee9&qqq8=                     ",
"                       eq0977&777qXX..&===o                     ",
"                       &&&&$oOOX.$$$w7$Xoo                      ",
"                         6XX#%OOO1tww7$X                        ",
"                          7$X#6OOO1w07&o                        ",
"                          r7%$#6.OOO7&o                         ",
"                          ri9%##.7...&X                         ",
"                          21@OOll2OOO..                         ",
"                          21@OO222OOO..                         ",
"                          ri9t==#==o*&X                         ",
"                         riiytw=<===6*$o                        ",
"                         riittw=<=088*$o                        ",
"                        riiittw<<%0886$o                        ",
"                        riittw=<X<=876$oX                       ",
"                        87==##.XoX......X                       ",
"                        wyuue&#X X&0ey06X                       ",
"                       wruppe6#X X&eypw0#                       ",
"                       wrpcpe7X   X8typw#                       ",
"                       wycc=e&X   X*=9pp&#                      ",
"                       wctei=X     Xepy00#                      ",
"                      wypce$=#X   X&&0yp0&X                     ",
"                      wypce8$X     X8eyy0&X                     ",
"                      wuppe7&X     X8ttt0&X                     ",
"                      8eee==#      X&88&&XX                     ",
"                      .OOOOO.       .OOOO.                      ",
"                      .,,-OO        .f>--.                      ",
"                      .f;-OO        .:f;-.                      ",
"                      .j,-OO         Ofj-O.                     ",
"                      .f;-O          .:f;O.                     ",
"                      :f;O.           Of>-.                     ",
"                     +fh,;O.         Oshgg>.                    ",
"                    +f>>-;O.         .fd>--O.                   ",
"                    OOOOOO.           .OOOOO.                   "
};
